# xmcd
# Track frame offsets:
# 150
# 10518
# 19802
# 29394
# 39406
# 50459
# 58639
# 80977
# 90708
# 100948
#
# Disc length: 1484 seconds
# Revision: 0
# Processed by: cddbd v1.4PL0 Copyright (c) Steve Scherf et al.
# Submitted via: VisiTrax 2.9.5.180 - For more info visit www.synapsa.com
#
DISCID=7505ca0a
DTITLE=Dave Dudley - Six Days On The Road
DYEAR=1996
DGENRE=
TTITLE0=Six Days On The Road
TTITLE1=Lonely Corner
TTITLE2=Taxi Cab Driver
TTITLE3=Boo On You
TTITLE4=Then I Can Go To Bed
TTITLE5=Above And Beyond
TTITLE6=Barbara Allen
TTITLE7=Last Day In The Mines
TTITLE8=John Henry
TTITLE9=The Gods Were Angry
EXTD=Pickwick
EXTT0=
EXTT1=
EXTT2=
EXTT3=
EXTT4=
EXTT5=
EXTT6=
EXTT7=
EXTT8=
EXTT9=
PLAYORDER=
